<?xml version="1.0" encoding="UTF-8"?>
<svg id="a" data-name="Layer 1" xmlns="http://www.w3.org/2000/svg" viewBox="0 0 64.71 62.47">
  <defs>
  <style>
    path {
      fill: #73653d;
    }
  </style>
  </defs>
  <path d="m55.39,6.05c.51-.21.99-.45,1.49-.61,3.48-1.13,6.7.99,7.56,4.2,1,3.73-.81,7.86-5,9.36-1.67.6-3.37.66-5.09.18-.06-.02-.12-.03-.21-.05,0,.12,0,.22,0,.32.1,2.54.2,5.09.3,7.63,0,.06.01.13,0,.19-.01.09-.04.18-.06.27-.09-.04-.18-.05-.25-.11-1.3-1.03-2.72-1.88-4.24-2.55-2.32-1.02-4.75-1.65-7.27-1.88-.43-.04-.87-.06-1.3-.1-.09,0-.17-.06-.25-.09.08-.05.15-.14.23-.15,1.29-.09,2.59-.24,3.88-.25,2.17-.03,4.29.3,6.34,1.01.33.12.66.25,1,.38.01-.02.03-.05.03-.07-.03-1.08-.06-2.15-.1-3.23-.03-.8-.44-1.39-1.07-1.85-.76-.56-1.63-.82-2.54-.99-1.75-.34-3.51-.31-5.27-.15-2.36.22-4.67.7-6.9,1.53-1.1.41-2.15.89-3.09,1.6-.07.06-.18.09-.27.1-2.34.18-4.47-.33-6.31-1.85-2.7-2.23-3.69-6.09-2.35-9.26.86-2.02,2.41-3.3,4.41-4.1,1.13-.45,2.33-.63,3.53-.8,2.03-.28,3.99-.78,5.76-1.87.06-.04.16-.02.24-.02-.03.08-.03.17-.08.23-.79.95-1.8,1.58-2.93,2.04-1.25.51-2.56.81-3.86,1.12-1.01.24-1.98.55-2.86,1.12-1.49.97-2.31,2.34-2.44,4.11-.12,1.67.2,3.25,1.14,4.66.87,1.32,2.03,2.26,3.64,2.52,1.44.23,2.66-.28,3.74-1.19.2-.17.38-.36.57-.54-.44-.3-.88-.56-1.26-.88-.99-.84-1.66-1.89-2.02-3.14-.02-.06-.04-.12-.04-.18,0-.07.02-.14.04-.21.07.04.15.07.2.13.37.44.7.93,1.1,1.33,2.25,2.25,5.76,2.82,8.53,1.41,1.28-.65,2.22-1.64,2.92-2.88.05-.09.15-.15.22-.23.03.11.09.22.09.33-.02.99-.25,1.92-.81,2.75-.01.02-.02.05-.05.14.45-.07.88-.09,1.28-.19,1.62-.39,2.67-1.45,3.35-2.93.35-.76.55-1.56.69-2.37.01-.07.08-.13.12-.2.04.06.12.11.13.18.26,1.6.22,3.16-.64,4.6-.25.42-.6.79-.91,1.19.38.15.81.19,1.24.18,1.3-.03,2.33-.64,3.22-1.53.33-.33.6-.72.91-1.08.05-.05.12-.08.19-.12.02.06.07.13.06.19-.23,1.1-.65,2.11-1.53,2.86-.09.07-.18.14-.31.24.31.16.58.31.87.45,1.35.64,2.76,1.03,4.26.86,2.42-.27,4.09-1.6,5.1-3.79.55-1.18.67-2.44.34-3.7-.5-1.93-1.83-3.02-3.73-3.38-2.24-.42-4.15.22-5.62,2.02-.05.06-.15.09-.23.13-.01-.08-.05-.17-.04-.25.1-.61.31-1.18.62-1.72.06-.11.09-.27.06-.39-.56-2.34-2.31-3.86-4.73-4.2-2.42-.34-4.62.21-6.68,1.48-.92.57-1.81,1.16-2.74,1.7-1.72,1.01-3.61,1.46-5.59,1.58-.48.03-.96.04-1.44.04-.09,0-.18-.06-.28-.09.08-.06.15-.14.23-.16,1.27-.34,2.52-.76,3.72-1.31,1.54-.71,2.88-1.73,4.2-2.77.66-.52,1.31-1.07,2.01-1.55C44.23.33,46.1-.08,48.09.01c1.52.08,2.95.47,4.24,1.29,1.72,1.08,2.74,2.62,3.03,4.64,0,.03.01.07.02.11Z"/>
  <path d="m23.46,22.69c-.5.21-.98.41-1.48.62-.2-.58-.42-1.23-.63-1.87-.45-1.33-.9-2.66-1.35-3.99-.05-.13-.07-.25-.28-.22-1.7.25-2.97-.48-3.95-1.81-1.04-1.41-1.62-3.01-1.89-4.73-.21-1.31-.25-2.62.05-3.92.13-.57.33-1.11.72-1.56.57-.65,1.44-.85,2.34-.54.68.24,1.27.65,1.8,1.13,1.92,1.74,3.21,3.86,3.71,6.42.2,1.05.22,2.12-.3,3.12-.28.53-.65.99-1.14,1.31-.24.16-.23.29-.12.51.82,1.76,1.63,3.52,2.44,5.28.04.1.08.19.11.24Z"/>
  <path d="m5.91,50.43c.41-.13.79-.26,1.19-.36.07-.02.19.06.24.13.91,1.31,1.93,2.53,3.07,3.65,3.41,3.34,7.44,5.57,12.09,6.65,2.42.56,4.88.77,7.37.59,6.09-.44,11.37-2.76,15.81-6.95,2.02-1.9,3.65-4.1,4.95-6.55.03-.06.07-.12.1-.17.38.21.75.42,1.12.63-3,6.2-10.08,12.8-19.89,14.16-11.26,1.56-21-3.99-26.05-11.78Z"/>
  <path d="m15.59,28.33c-.4-.23-.78-.44-1.16-.67-.09-.05-.16-.15-.2-.25-.48-1.42-.96-2.85-1.42-4.28-.18-.56-.53-.92-1.08-1.08-.33-.1-.67-.18-1-.27-.75-.21-1.25-.68-1.52-1.41-.76-2.02-1.52-4.04-2.29-6.06-.6-1.6-1.2-3.19-1.8-4.79-.06-.16-.11-.32-.11-.49,0-.1.07-.26.16-.3.09-.05.27-.03.34.04.13.11.24.27.3.42.75,1.86,1.49,3.73,2.24,5.59.51,1.29,1.03,2.57,1.54,3.86.07.18.18.34.38.3.12-.03.25-.14.33-.25.04-.06.01-.21-.02-.3-.95-2.4-1.91-4.8-2.87-7.21-.31-.78-.62-1.55-.92-2.33-.05-.13-.09-.28-.08-.41,0-.1.08-.24.16-.27.09-.03.27,0,.33.07.12.13.22.3.29.47,1,2.49,1.99,4.99,2.98,7.48.24.61.49,1.22.73,1.83.14.35.31.46.54.38.23-.08.28-.3.15-.63-.96-2.4-1.91-4.81-2.87-7.21-.3-.74-.6-1.48-.89-2.23-.05-.12-.09-.26-.07-.39.02-.12.09-.28.18-.31.09-.04.27.02.34.1.12.14.21.33.28.5,1.23,3.09,2.46,6.17,3.69,9.26.02.05.04.1.06.15.09.2.25.28.46.22.19-.06.29-.26.22-.48-.09-.25-.19-.5-.29-.74-1.16-2.91-2.32-5.81-3.47-8.72-.07-.18-.12-.38-.11-.56,0-.11.14-.27.24-.3.09-.03.25.06.33.15.1.1.15.24.21.37,1.49,3.55,2.98,7.1,4.48,10.64.33.79.3,1.54-.17,2.26-.15.23-.29.47-.44.7-.33.53-.34,1.06-.07,1.62.72,1.53,1.44,3.06,2.16,4.58.08.17.09.3-.03.46-.12.16-.19.36-.26.49Z"/>
  <path d="m39.83,29.09c.57,0,1.14,0,1.71,0,.14,0,.28.04.41.1.09.04.2.13.21.21,0,.08-.09.21-.16.24-.38.13-.77.29-1.17.34-1.28.18-2.57.26-3.86.08-1.12-.16-2.19-.46-3.13-1.12-.88-.62-1.45-1.44-1.43-2.57.01-.9.45-1.57,1.2-2.04,1.09-.69,2.3-.87,3.56-.75,1.81.17,3.52.78,5.21,1.39,1.87.67,3.73,1.39,5.69,1.8.83.17,1.68.27,2.53.41.09.02.18.08.26.12-.09.05-.17.12-.26.14-1.78.3-3.54.22-5.3-.12-1.61-.31-3.23-.63-4.85-.9-1.27-.21-2.55-.3-3.82-.03-.26.05-.52.15-.75.27-.57.3-.66.83-.25,1.33.39.48.92.75,1.51.91.89.24,1.79.24,2.7.21Z"/>
  <path d="m49.72,46.16c.15.21.29.4.41.61.04.06.01.18-.03.26-.86,1.69-1.9,3.26-3.13,4.69-3.23,3.77-7.22,6.36-11.99,7.75-2.79.81-5.63,1.09-8.53.88-4.69-.33-8.93-1.89-12.73-4.64-2.21-1.6-4.09-3.53-5.67-5.76-.03-.04-.04-.08-.09-.16.23-.07.45-.14.67-.18.06,0,.16.09.21.16,1.34,1.84,2.9,3.47,4.7,4.86,3.16,2.45,6.7,4.04,10.65,4.69,5.6.92,10.9.01,15.83-2.79,3.97-2.26,7.04-5.42,9.21-9.45.16-.3.32-.61.49-.93Z"/>
  <path d="m13.37,28.73c.6,0,1.13.17,1.44.74.34.64.04,1.42-.7,1.7-.42.16-.88.22-1.32.26-1.44.11-2.8.45-4.05,1.19-.3.18-.58.17-.72.01-.15-.16-.13-.48.1-.73,1.26-1.42,2.69-2.59,4.57-3.08.14-.04.28-.06.42-.08.09-.01.18,0,.27,0Z"/>
  <path d="m7.33,19.19c.18.49.35.93.51,1.37.02.05.01.12-.01.17-.68,1.04-1.36,2.07-2.04,3.1-.31-.23-.65-.49-1.02-.77.72-1.34,1.57-2.62,2.57-3.87Z"/>
  <path d="m31.66,48.66c-.25.22-.5.45-.76.66-.15.12-.19.25-.11.44.13.32.22.65.35,1.04-.36-.17-.66-.31-.96-.48-.17-.09-.29-.1-.45.04-.26.22-.55.41-.88.66.06-.41.1-.75.17-1.08.03-.17,0-.28-.16-.38-.29-.19-.57-.4-.91-.65.43-.07.79-.13,1.14-.21.09-.02.2-.11.23-.2.13-.35.23-.7.36-1.11.19.36.37.67.52.99.08.17.18.21.35.21.35-.01.69,0,1.04,0,.03.03.05.05.08.08Z"/>
  <path d="m35.02,48.99c.05-.34.11-.63.14-.92,0-.09-.05-.22-.12-.28-.22-.19-.47-.34-.76-.55.32-.05.57-.11.83-.14.19-.02.3-.09.35-.29.06-.26.15-.51.25-.82.16.3.28.56.44.8.05.08.18.16.28.17.28.02.56,0,.92,0-.23.23-.4.43-.6.61-.14.13-.16.25-.09.42.1.25.17.5.28.82-.3-.15-.56-.25-.8-.39-.15-.09-.25-.06-.38.04-.22.18-.45.34-.72.54Z"/>
  <path d="m21.94,48.5c.36-.07.65-.11.93-.18.08-.02.18-.11.21-.18.1-.27.18-.55.29-.89.16.3.3.54.42.79.07.15.15.19.31.18.28-.01.56,0,.91,0-.19.2-.33.38-.5.51-.25.19-.27.39-.15.66.09.2.14.41.22.68-.31-.15-.56-.29-.82-.4-.09-.04-.24-.02-.33.03-.24.15-.47.34-.75.55.05-.34.08-.61.14-.88.04-.17,0-.26-.15-.35-.23-.15-.45-.31-.73-.52Z"/>
  <path d="m8.23,21.45c.14.2.28.39.41.57-.64,1.07-1.27,2.14-1.91,3.21-.11-.2-.24-.41-.36-.64-.03-.05-.03-.15,0-.2.59-.97,1.19-1.94,1.79-2.9.01-.02.04-.03.07-.04Z"/>
  <g>
    <path class="b" d="m1,40.22s.04.04.09.03c.04,0,.22-.06.53-.17.31-.11.6-.19.86-.24-.28.13-.52.26-.71.38-.2.12-.4.25-.61.39-.21.14-.36.23-.45.28-.09.05-.17.08-.24.1-.23.04-.37-.09-.42-.38-.13-.75-.04-1.31.29-1.69.13-.15.36-.34.67-.57.31-.23.68-.46,1.08-.69.41-.23.86-.45,1.36-.65.5-.2,1-.35,1.51-.44.52-.09,1.01-.1,1.47-.03.46.07.86.22,1.21.44.34.22.63.51.85.88.23.37.38.79.47,1.28.13.75.04,1.51-.26,2.29s-.78,1.5-1.4,2.17c-.63.67-1.37,1.24-2.22,1.71-.85.48-1.72.79-2.6.95-.16.03-.3.03-.4.02-.1-.02-.18-.08-.24-.17-.06-.1-.11-.25-.14-.45-.04-.25-.06-.46-.05-.63.01-.17.05-.36.1-.59.39-1.52,1.19-3.49,2.4-5.91-.31.09-.65.22-1.02.39-.37.17-.71.34-1.03.52-.32.18-.59.35-.81.5-.22.15-.32.25-.31.3Zm3.35-1.79s.02.06.05.15c.03.09.06.16.07.23.02.1,0,.25-.08.45-.07.2-.22.57-.44,1.09-.22.52-.41.98-.57,1.37-.16.39-.33.89-.53,1.5-.06.19-.1.32-.13.39-.03.07-.06.18-.12.33-.05.16-.09.29-.11.4-.02.11-.02.19-.01.24.02.12.1.18.23.21s.32.01.56-.03c.6-.11,1.23-.33,1.86-.67.64-.34,1.22-.75,1.74-1.25.52-.49.92-1.02,1.19-1.57.27-.55.35-1.1.26-1.63-.11-.61-.42-1.04-.92-1.29-.51-.25-1.19-.3-2.05-.14-.36.06-.7.14-1.01.22Z"/>
    <path class="b" d="m14.18,41.71l.08.44c-.25.32-.45.54-.61.66-.16.12-.41.2-.75.24-.46.78-.91,1.21-1.35,1.29-.25.04-.49,0-.72-.12-.23-.13-.44-.32-.61-.58-.17-.26-.29-.57-.35-.92-.05-.28-.01-.61.12-.99s.32-.74.56-1.09c.25-.35.53-.65.84-.89.31-.25.61-.39.9-.45.21-.04.38-.03.51,0,.13.04.21.12.23.24.02.09-.02.2-.1.33.17,0,.3.04.38.11.08.07.13.21.17.43.04.21.04.49,0,.83-.04.34-.12.67-.25.98l.14.1.1-.02c.08-.01.15-.05.21-.1.07-.05.13-.1.18-.15.05-.05.16-.17.33-.35Zm-1.68-1.5c-.33.29-.61.54-.84.77-.23.23-.42.45-.57.66-.15.22-.24.42-.27.62-.02.51-.03.79-.02.83.05.29.28.4.69.33.19-.03.48-.25.87-.66-.11-.2-.19-.39-.22-.58-.05-.28-.04-.57.02-.88.06-.31.18-.67.34-1.09Z"/>
    <path class="b" d="m17.29,41.44l-1.01,1.21c-.48.59-.81.9-1,.94-.17.03-.39-.13-.65-.5-.26-.36-.42-.69-.47-.99-.04-.25-.04-.47,0-.66.05-.19.14-.44.28-.75.2-.42.41-.79.61-1.09s.39-.55.55-.72c.17-.18.29-.27.36-.29.12-.02.25.02.38.12.14.1.21.22.24.35.02.08-.02.23-.11.44-.09.21-.24.48-.46.81-.21.33-.52.74-.92,1.22l-.06.39c-.02.08-.03.14-.02.2.02.12.09.17.21.15.12-.02.39-.23.79-.63.4-.4.83-.91,1.27-1.53.17-.25.31-.46.42-.64.11-.18.21-.35.29-.51.09-.16.16-.28.22-.36.06-.08.12-.13.18-.15.11-.03.2,0,.28.09s.14.25.18.45c.02.12,0,.28-.08.47s-.22.54-.44,1.02c-.22.48-.43.98-.64,1.49-.21.51-.41,1.09-.61,1.72.01-.02.12-.17.34-.47.21-.3.44-.61.68-.94.24-.32.44-.59.6-.79.16-.2.36-.43.6-.7l.08.44c-.49.75-.92,1.45-1.31,2.11-.38.66-.68,1.19-.88,1.58-.2.39-.32.62-.36.68-.09.18-.17.34-.25.49-.07.15-.13.27-.18.35-.05.08-.1.13-.14.14-.09.02-.19-.06-.3-.23-.11-.17-.17-.33-.2-.47-.02-.13-.02-.24.01-.35.19-.77.69-2.14,1.49-4.11Z"/>
    <path class="b" d="m19.86,39.49c.57-.73,1.14-1.3,1.73-1.71s1.05-.64,1.4-.71c.09-.02.19,0,.28.07.09.06.17.14.24.24.06.09.1.16.11.21.01.08,0,.14-.06.19-.06.05-.16.11-.3.19.04.06.1.15.17.25.07.1.12.18.16.25.04.06.06.12.07.18.02.11-.05.32-.22.65s-.28.57-.34.72-.08.33-.04.53c.06.33.24.46.54.41.31-.05.75-.43,1.31-1.13l.07.4c-.9,1.44-1.6,2.21-2.08,2.29-.17.03-.31,0-.4-.1-.09-.1-.16-.26-.2-.48-.06-.35-.02-.88.11-1.58-.52.83-.91,1.43-1.18,1.78-.26.36-.5.56-.7.59-.1.02-.24-.04-.41-.19-.18-.14-.35-.34-.51-.58s-.27-.51-.32-.8c-.04-.21-.05-.38-.03-.53.02-.15.07-.3.16-.47.09-.17.24-.39.45-.67Zm3.07-1.3c-1.06.73-1.81,1.32-2.23,1.78-.43.45-.6.88-.54,1.26.03.14.07.25.14.33.06.08.14.12.22.1.05,0,.13-.05.24-.14.42-.36.78-.79,1.09-1.3.31-.51.67-1.19,1.08-2.04Z"/>
    <path class="b" d="m29.12,37.83c-.63,1-.91,1.68-.85,2.02.03.19.13.27.28.24.13-.02.29-.12.47-.29s.46-.47.84-.89l.08.46c-.52.73-.93,1.26-1.22,1.6-.29.33-.54.52-.75.56-.36.06-.59-.14-.67-.62-.02-.14-.03-.28,0-.43.02-.15.06-.3.11-.46.05-.16.13-.39.24-.7.11-.3.24-.65.39-1.04-.23.17-.5.48-.82.93-.21.28-.38.55-.51.79-.14.25-.28.52-.43.81-.15.3-.26.5-.34.61-.07.11-.16.17-.25.19-.14.03-.3-.1-.47-.38-.17-.27-.29-.61-.36-1-.04-.24-.05-.44-.02-.58.03-.15.11-.36.23-.64.22-.52.43-.91.61-1.17.18-.26.38-.41.58-.44.14-.03.26-.02.36.01.1.03.15.1.17.2,0,.04,0,.09-.02.15-.02.05-.04.1-.07.15-.03.05-.08.14-.17.27-.56.9-.83,1.46-.79,1.69.02.13.08.19.16.17.05,0,.14-.11.27-.31.12-.2.28-.46.47-.77.19-.32.43-.66.71-1.02.28-.36.6-.72.98-1.07.21-.21.39-.32.54-.35.07-.01.16.07.26.25.1.18.17.37.21.57.02.1-.05.26-.21.49Z"/>
    <path class="b" d="m38.85,37.82l-1.6,1.31c-.27.73-.56,1.42-.84,2.07-.29.66-.55,1.2-.79,1.64-.24.44-.45.77-.63,1.01-.19.24-.33.37-.44.39-.14.02-.27,0-.37-.08-.11-.08-.17-.18-.19-.31-.08-.48.08-1.12.49-1.94.41-.81,1.13-1.73,2.16-2.75.34-1.06.6-2.01.79-2.86s.32-1.57.39-2.16c.07-.59.11-1.06.12-1.42,0-.35,0-.57-.01-.67-.03-.19-.12-.27-.27-.25-.12.02-.28.12-.49.3-.21.18-.42.43-.65.75-.22.32-.42.68-.59,1.08-.17.39-.32.83-.43,1.3-.12.47-.19.91-.23,1.29-.04.39-.04.7,0,.92,0,.06.04.18.09.37.03-.07.07-.15.11-.25.04-.1.1-.2.17-.31s.15-.2.24-.28c.05-.05.11-.1.19-.15.08-.04.12-.05.12-.01,0,.03-.09.22-.29.57-.2.35-.37.67-.51.95-.08.16-.2.32-.36.47-.16.15-.29.24-.4.26-.13.02-.23-.02-.3-.14-.06-.12-.12-.31-.17-.58-.12-.65-.13-1.39-.05-2.23s.26-1.59.53-2.25c.22-.53.52-1.03.9-1.5.38-.47.75-.84,1.14-1.13.38-.29.69-.46.93-.5.29-.05.54,0,.73.15.19.15.32.39.37.72.03.16.04.34.04.55,0,.2-.01.41-.04.63-.02.21-.06.56-.13,1.03-.06.48-.1.79-.12.94-.06.48-.16.98-.29,1.5-.14.52-.35,1.21-.62,2.07l1.23-.97.08.43Z"/>
    <path class="b" d="m39.35,36.03c.57-.73,1.14-1.3,1.73-1.71.58-.41,1.05-.65,1.4-.71.09-.02.19,0,.28.07.09.06.17.14.24.23.06.09.1.17.11.21.01.08,0,.14-.06.19-.06.05-.16.11-.3.19.04.06.1.15.17.25.07.1.12.18.16.25.04.07.06.12.07.18.02.11-.05.32-.22.65-.16.33-.28.57-.34.72-.06.15-.08.33-.04.53.06.33.24.46.54.41.31-.06.75-.43,1.31-1.13l.07.4c-.9,1.44-1.6,2.2-2.08,2.29-.17.03-.31,0-.4-.1s-.16-.26-.2-.48c-.06-.35-.03-.88.11-1.58-.52.83-.91,1.43-1.18,1.78-.26.36-.5.56-.7.59-.1.02-.24-.04-.41-.19-.18-.14-.35-.33-.51-.58-.16-.25-.27-.51-.32-.8-.04-.21-.05-.38-.03-.53.01-.15.07-.3.16-.47s.24-.39.45-.67Zm3.07-1.3c-1.06.73-1.81,1.32-2.23,1.78-.43.45-.6.88-.54,1.26.03.14.07.25.13.33.07.08.14.12.22.1.05,0,.13-.05.24-.14.42-.36.78-.79,1.09-1.3s.67-1.19,1.08-2.04Z"/>
    <path class="b" d="m44.51,35.11l.09-.56,1.14-.78c.67-.47,1.17-.74,1.5-.8.26-.05.41.05.45.28.01.08,0,.23-.03.43-.04.2-.1.49-.2.87-.1.38-.22.81-.35,1.29-.13.48-.28.98-.42,1.49.29-.28.55-.55.77-.78.22-.24.47-.53.75-.88l.1.47c-.72.89-1.39,1.75-1.99,2.61-.29.93-.56,1.64-.82,2.13-.26.49-.48.75-.65.78-.12.02-.2-.08-.24-.32-.05-.29-.04-.59.04-.9.08-.31.22-.65.43-1.02.21-.37.47-.75.77-1.14.37-1.2.62-2.08.77-2.62.14-.54.2-.89.18-1.05-.02-.1-.07-.14-.17-.12-.05,0-.36.21-.92.6-.56.39-.92.61-1.07.63-.09.02-.15-.03-.17-.13-.01-.07,0-.23.04-.49Zm3.67-4.19c.02.13,0,.33-.05.58-.05.34-.12.57-.18.7-.07.12-.19.2-.37.23-.38.07-.6-.02-.64-.28-.04-.2.03-.5.2-.92.09-.22.17-.36.24-.42.07-.06.18-.1.35-.13.27-.05.42.03.46.24Z"/>
    <path class="b" d="m48.73,34.36c.57-.73,1.14-1.3,1.73-1.71.58-.41,1.05-.64,1.39-.71.09-.02.19,0,.28.07.09.06.17.14.24.23.06.09.1.16.11.21.01.08,0,.14-.06.19-.05.05-.16.11-.3.19.04.06.1.15.17.25.07.1.12.19.16.25.04.06.06.12.07.18.02.11-.05.32-.22.65-.16.33-.28.57-.34.72-.06.15-.08.33-.04.53.06.33.24.46.54.41.31-.06.75-.43,1.31-1.13l.07.4c-.9,1.44-1.6,2.2-2.08,2.29-.17.03-.31,0-.4-.1-.09-.1-.16-.26-.2-.48-.06-.35-.03-.88.11-1.58-.52.83-.91,1.43-1.18,1.78-.26.36-.5.56-.7.59-.1.02-.24-.04-.41-.19-.18-.14-.35-.33-.51-.58-.16-.25-.27-.51-.32-.8-.04-.21-.05-.38-.03-.53.01-.15.07-.3.16-.47s.24-.39.45-.67Zm3.07-1.3c-1.06.73-1.81,1.32-2.23,1.78-.43.45-.6.88-.54,1.26.02.14.07.25.13.33.06.08.14.12.22.1.05,0,.13-.05.24-.14.42-.36.78-.79,1.09-1.3s.67-1.19,1.08-2.04Z"/>
    <path class="b" d="m57.98,32.7c-.63,1-.91,1.68-.85,2.02.03.19.13.27.28.24.13-.02.28-.12.47-.29.18-.17.46-.47.84-.89l.08.46c-.52.73-.93,1.26-1.22,1.6-.29.33-.54.52-.75.56-.37.07-.59-.14-.67-.62-.03-.14-.03-.28,0-.43.02-.15.06-.3.11-.46s.13-.39.24-.7c.11-.3.24-.65.39-1.04-.23.17-.5.48-.82.93-.21.28-.38.55-.51.79-.14.25-.28.52-.43.82-.15.3-.26.5-.34.61-.08.11-.16.17-.25.19-.14.03-.3-.1-.47-.37-.17-.27-.29-.61-.36-1-.04-.24-.05-.44-.02-.58.03-.15.11-.36.23-.64.22-.52.43-.91.61-1.17.18-.26.38-.41.58-.44.14-.02.26-.02.36.01.1.03.15.1.17.2,0,.04,0,.09-.01.15-.02.05-.04.1-.07.15-.03.05-.08.14-.17.27-.56.9-.83,1.46-.79,1.69.02.13.08.18.16.17.05,0,.14-.11.26-.31.12-.2.28-.46.47-.77.19-.32.43-.66.71-1.02.28-.36.6-.72.98-1.07.21-.21.39-.32.54-.35.07-.01.16.07.26.25s.17.37.21.57c.02.1-.05.26-.21.49Z"/>
  </g>
</svg>